<svg id="Layer_1" data-name="Layer 1" xmlns="http://www.w3.org/2000/svg" xmlns:xlink="http://www.w3.org/1999/xlink" viewBox="44 0 180 165"><defs><style>.cls-1{fill:#0062e3;}.cls-2{fill:#0f1f2c;}.cls-3{fill:url(#linear-gradient);}.cls-4{fill:#fed141;}.cls-5{fill:none;stroke:#0062e3;stroke-linecap:round;stroke-linejoin:round;stroke-width:2px;}.cls-6{isolation:isolate;}.cls-7{fill:url(#linear-gradient-2);}.cls-8{fill:url(#linear-gradient-3);}.cls-9{fill:#ff7f64;}</style><linearGradient id="linear-gradient" x1="62.59" y1="70.48" x2="106.94" y2="138.93" gradientUnits="userSpaceOnUse"><stop offset="0" stop-color="#ff7f64"/><stop offset="0.37" stop-color="#fd7f65"/><stop offset="0.51" stop-color="#f67e68"/><stop offset="0.6" stop-color="#eb7d6e"/><stop offset="0.68" stop-color="#da7b77"/><stop offset="0.75" stop-color="#c47882"/><stop offset="0.8" stop-color="#a8758f"/><stop offset="0.86" stop-color="#88719f"/><stop offset="0.91" stop-color="#626db2"/><stop offset="0.95" stop-color="#3768c8"/><stop offset="0.99" stop-color="#0963de"/><stop offset="1" stop-color="#0062e3"/></linearGradient><linearGradient id="linear-gradient-2" x1="179.63" y1="2.58" x2="93.72" y2="81.85" gradientUnits="userSpaceOnUse"><stop offset="0.24" stop-color="#ffece8"/><stop offset="0.52" stop-color="#fdebe8"/><stop offset="0.62" stop-color="#f6e7e8"/><stop offset="0.7" stop-color="#ebe1e8"/><stop offset="0.76" stop-color="#dad8e7"/><stop offset="0.81" stop-color="#c4cce7"/><stop offset="0.85" stop-color="#a8bde6"/><stop offset="0.89" stop-color="#88ace6"/><stop offset="0.93" stop-color="#6297e5"/><stop offset="0.96" stop-color="#3780e4"/><stop offset="0.99" stop-color="#0967e3"/><stop offset="1" stop-color="#0062e3"/></linearGradient><linearGradient id="linear-gradient-3" x1="98.06" y1="47.5" x2="142.41" y2="115.95" xlink:href="#linear-gradient"/></defs><path class="cls-1" d="M175.69,93.46c6.23-2.16,9.67-6,11.81-12.42a1.1,1.1,0,0,1,2-.09c2.87,7,4.88,9.94,11.84,12.79a1.19,1.19,0,0,1-.06,2.16c-7.53,2.84-9.31,7.62-11.95,14.71l0,.11a1,1,0,0,1-1.82,0c-2.34-7.23-3.16-11.76-11.79-14.42C174.63,95.92,174.62,93.83,175.69,93.46Z"/><path class="cls-1" d="M48.49,40.49c7.87-4.65,10.62-8.12,11.84-16.2a2.3,2.3,0,0,1,4.08-1c5.42,7.66,9.44,9.46,17.65,11.07,2.11.41,2.47,4.14.71,5.37-7.71,5.39-10.92,14.52-14.22,23.65a1.77,1.77,0,0,1-3.43-.1c-2.6-9.83-2.53-16.5-15.7-18.48A2.4,2.4,0,0,1,48.49,40.49Z"/><polygon class="cls-2" points="137.06 99.59 162.13 96.11 187.2 92.63 171.63 71.69 156.06 50.76 140.47 29.8 115.41 33.29 90.34 36.77 65.27 40.25 80.85 61.21 96.42 82.14 111.99 103.08 137.06 99.59"/><polygon class="cls-3" points="112 103.08 65.27 40.26 44.51 86.23 91.23 149.05 112 103.08"/><polygon class="cls-4" points="116.29 145.56 141.36 142.08 166.43 138.6 187.2 92.63 162.13 96.11 137.06 99.59 111.99 103.08 91.22 149.05 116.29 145.56"/><line class="cls-5" x1="116.29" y1="145.56" x2="137.06" y2="99.59"/><line class="cls-5" x1="141.36" y1="142.08" x2="162.13" y2="96.11"/><line class="cls-5" x1="75.66" y1="128.11" x2="96.42" y2="82.14"/><line class="cls-5" x1="60.09" y1="107.18" x2="80.85" y2="61.21"/><polyline class="cls-5" points="54.72 63.63 101.77 126.02 176.82 115.59"/><g class="cls-6"><polygon class="cls-7" points="111.28 63.54 140.01 75.92 167.63 87.83 188.19 37.14 159.48 24.75 130.77 12.38 102.04 0 81.92 50.88 111.28 63.54"/><polygon class="cls-8" points="100.7 86.66 129.43 99.05 158.12 111.42 167.63 87.83 140.01 75.92 111.28 63.54 81.92 50.88 71.97 74.28 100.7 86.66"/></g><line class="cls-5" x1="129.43" y1="99.05" x2="159.48" y2="24.75"/><line class="cls-5" x1="100.7" y1="86.66" x2="130.77" y2="12.38"/><line class="cls-5" x1="174.47" y1="70.96" x2="88.65" y2="33.92"/><line class="cls-5" x1="181.34" y1="54.03" x2="95.33" y2="16.96"/><polygon class="cls-9" points="214.52 25.27 214.08 23.86 213.35 22.61 212.68 21.32 211.78 20.19 210.83 19.09 209.69 18.16 209.12 16.75 207.75 16.05 206.75 15.03 205.94 13.79 204.61 13.13 203.58 12.13 202.68 10.92 201.43 10.18 200.1 9.58 198.8 8.95 197.61 8.14 196.43 7.3 195.2 6.54 193.75 6.23 192.45 5.63 191.2 4.89 189.82 4.45 188.53 3.79 187.11 3.48 185.68 3.24 184.34 2.64 183.05 3.32 181.88 4.15 181.27 5.47 181.53 6.89 181.92 8.14 182.53 9.4 183.91 9.71 185.26 10.23 186.6 10.75 187.81 11.57 189.02 12.34 190.43 12.76 191.42 13.88 192.84 14.32 193.8 15.44 195.07 16.14 196.13 17.11 197.3 17.96 198.37 18.92 199.32 19.99 200 21.31 201.32 22.07 201.96 23.4 203.04 24.39 203.87 25.57 204.55 26.84 205.31 28.06 205.99 29.33 206.43 30.71 207.2 31.93 207.73 33.26 208.06 34.66 208.52 36.01 208.76 37.42 208.99 38.83 209.31 40.22 209.39 41.64 209.86 43.03 209.56 44.47 209.8 45.89 209.91 47.32 209.43 48.72 209.58 50.16 209.21 51.55 209.26 52.99 209.01 54.39 208.98 55.84 208.33 57.16 207.98 58.54 208.05 60.02 207.79 61.42 207.15 62.73 207.25 64.07 207.19 65.44 208.01 66.54 208.94 67.59 210.26 68.11 211.67 68.32 213.08 68.05 214.08 67.03 214.76 65.9 215.78 64.85 216.19 63.46 216.68 62.14 217.33 60.88 217.69 59.5 218.25 58.2 218.61 56.83 218.84 55.43 219.6 54.14 219.72 52.71 219.91 51.3 219.84 49.87 219.71 48.44 220.05 47.03 219.75 45.62 219.81 44.2 219.6 42.8 219.95 41.34 219.5 39.96 219.18 38.58 218.7 37.23 218.45 35.84 218.21 34.44 217.63 33.14 217.68 31.63 216.91 30.39 216.31 29.11 215.98 27.71 215.56 26.33 214.52 25.27"/><path class="cls-1" d="M79.84,138.12c8.1-1.41,11.77-2.92,14.3-10.62a1.14,1.14,0,0,1,2.08-.13c3.85,8.31,7.16,7.88,16.43,10.71a1.12,1.12,0,0,1,0,2.07c-10.16,4.23-13.14,14.47-16.73,24.32a.92.92,0,0,1-1.77,0c-3-10-2.81-19.61-14.45-23.83C78.66,140.22,78.72,138.31,79.84,138.12Z"/></svg>
